<?xml version="1.0" encoding="utf-8"?>
<!-- Generator: Adobe Illustrator 24.3.0, SVG Export Plug-In . SVG Version: 6.00 Build 0)  -->
<svg xmlns="http://www.w3.org/2000/svg" id="Layer_1" data-name="Layer 1" viewBox="0 0 120.1 29.38"><defs><style>.cls-1{fill:#fff;}</style></defs><path class="cls-1" d="M15.31,5.33H5.39A5.39,5.39,0,0,0,0,10.72v9.19A5.39,5.39,0,0,0,5.39,25.3h9.92a5.39,5.39,0,0,0,5.39-5.39V10.72A5.39,5.39,0,0,0,15.31,5.33Zm3.45,15.26A6.61,6.61,0,0,1,17,22.12a3.57,3.57,0,0,1-1.83.5A3,3,0,0,1,13,21.89,2.48,2.48,0,0,1,12.24,20a21.66,21.66,0,0,1,.27-2.54,9.72,9.72,0,0,1-2.17,3.84,4.17,4.17,0,0,1-3,1.32,2.78,2.78,0,0,1-2.2-.8,3,3,0,0,1-.73-2.13,9.34,9.34,0,0,1,.22-1.83L5.69,13c0-.09.08-.34.16-.75A6.41,6.41,0,0,0,6,10.87a1,1,0,0,0-.16-.62.54.54,0,0,0-.44-.2,2.19,2.19,0,0,0-1.2.48A7.22,7.22,0,0,0,2.75,12a.67.67,0,0,1-.54.33.55.55,0,0,1-.42-.23.82.82,0,0,1-.18-.52,2.12,2.12,0,0,1,.48-1.2A5,5,0,0,1,6.19,8a2.08,2.08,0,0,1,1.63.63,2.64,2.64,0,0,1,.6,1.87,10.81,10.81,0,0,1-.12,1.61c-.08.49-.22,1.16-.42,2l-.7,3.14-.12.55a5.42,5.42,0,0,1-.13.74,4.14,4.14,0,0,0-.06.7,1.26,1.26,0,0,0,.31.87,1.14,1.14,0,0,0,.88.33,3,3,0,0,0,2.08-1.1,10.24,10.24,0,0,0,1.95-3.54,29.66,29.66,0,0,0,1.4-6.24,3.06,3.06,0,0,1,.35-1.22,1,1,0,0,1,.9-.34,1.07,1.07,0,0,1,.89.36,1.89,1.89,0,0,1,.29,1.16,9.88,9.88,0,0,1-.11,1.22c-.08.5-.19,1.2-.34,2.11-.3,1.74-.55,3.35-.73,4.81a12.18,12.18,0,0,0-.14,1.47,1.6,1.6,0,0,0,.32,1.07,1,1,0,0,0,.85.37,2,2,0,0,0,1.1-.37A7.65,7.65,0,0,0,18.15,19a.57.57,0,0,1,.46-.24A.39.39,0,0,1,19,19a1,1,0,0,1,.13.57A1.61,1.61,0,0,1,18.76,20.59Z" transform="translate(0 0)"/><path class="cls-1" d="M31.24,11.59a.4.4,0,0,1-.56-.06,3.75,3.75,0,0,0-1.09-.93,3.91,3.91,0,0,0-1.92-.48,4.23,4.23,0,0,0-.94.1,2.54,2.54,0,0,0-.84.33,1.59,1.59,0,0,0-.59.56,1.46,1.46,0,0,0-.23.84,1.4,1.4,0,0,0,.8,1.31,10,10,0,0,0,2.39.78,17.29,17.29,0,0,1,1.86.56,6.16,6.16,0,0,1,1.49.81,3.75,3.75,0,0,1,1,1.17A3.4,3.4,0,0,1,33,18.17a4.37,4.37,0,0,1-.47,2.1,4.3,4.3,0,0,1-1.25,1.4,5.3,5.3,0,0,1-1.79.78,9,9,0,0,1-2.06.23,8.15,8.15,0,0,1-3.12-.62A6.12,6.12,0,0,1,22,20.48a.39.39,0,0,1,0-.55l1.38-1.17a.39.39,0,0,1,.55,0,4.5,4.5,0,0,0,1.31,1.07,4.2,4.2,0,0,0,2.16.56,4.78,4.78,0,0,0,1-.1,2.93,2.93,0,0,0,.89-.34,1.87,1.87,0,0,0,.63-.62,1.75,1.75,0,0,0,.24-1A1.54,1.54,0,0,0,29.28,17a12.43,12.43,0,0,0-2.73-.88c-.47-.12-.95-.26-1.43-.43A5,5,0,0,1,23.81,15a3.43,3.43,0,0,1-1-1.11,3.34,3.34,0,0,1-.37-1.64,3.82,3.82,0,0,1,.46-1.93A3.89,3.89,0,0,1,24.13,9a5.21,5.21,0,0,1,1.68-.76,7.72,7.72,0,0,1,4.91.34A4.88,4.88,0,0,1,32.65,10a.37.37,0,0,1,0,.52l0,0Z" transform="translate(0 0)"/><path class="cls-1" d="M49.12,15.19v.57a.38.38,0,0,1-.38.38H38.39a.37.37,0,0,0-.39.37v.06A4.27,4.27,0,0,0,40.78,20a4.46,4.46,0,0,0,1.73.32A4.61,4.61,0,0,0,45,19.73a5.11,5.11,0,0,0,1.39-1.19.39.39,0,0,1,.54-.06l1.34,1.07a.38.38,0,0,1,0,.55h0A6.75,6.75,0,0,1,45.89,22a8.5,8.5,0,0,1-6.33.17,6.73,6.73,0,0,1-2.33-1.49,6.93,6.93,0,0,1-1.54-2.31,7.87,7.87,0,0,1-.56-3,8.1,8.1,0,0,1,.55-3A6.6,6.6,0,0,1,37.2,10a7,7,0,0,1,2.31-1.52,7.62,7.62,0,0,1,2.87-.54,7.22,7.22,0,0,1,2.79.5A5.63,5.63,0,0,1,47.3,9.88a6.38,6.38,0,0,1,1.34,2.29A8.84,8.84,0,0,1,49.12,15.19Zm-3.25-1.12a.38.38,0,0,0,.38-.38v0A4.78,4.78,0,0,0,46,12.52a3.43,3.43,0,0,0-.73-1.25,3.38,3.38,0,0,0-1.21-.84,4.73,4.73,0,0,0-3.37,0,4,4,0,0,0-1.35.84A4.27,4.27,0,0,0,38,13.62a.4.4,0,0,0,.33.45h7.54Z" transform="translate(0 0)"/><path class="cls-1" d="M52.51,9.88a7,7,0,0,0-.06-1.15.38.38,0,0,1,.37-.41h1.87a.39.39,0,0,1,.39.35,5.32,5.32,0,0,0,.05.87v1.14h.09a4.8,4.8,0,0,1,1.73-2,6,6,0,0,1,3.29-.75.4.4,0,0,1,.34.4l-.09,1.79a.39.39,0,0,1-.39.37H60a5.93,5.93,0,0,0-.84-.06,4,4,0,0,0-1.74.37,3.58,3.58,0,0,0-1.22,1,3.86,3.86,0,0,0-.72,1.43,6.07,6.07,0,0,0-.24,1.7v7a.38.38,0,0,1-.37.39h-2a.38.38,0,0,1-.38-.38h0V11.33A13.77,13.77,0,0,0,52.51,9.88Z" transform="translate(0 0)"/><path class="cls-1" d="M65.19,29.38h-2A.4.4,0,0,1,62.8,29V8.71a.38.38,0,0,1,.39-.39h1.94a.38.38,0,0,1,.39.39V10.5h.09a5.13,5.13,0,0,1,2-1.84,6.15,6.15,0,0,1,3-.72,6.92,6.92,0,0,1,2.84.56,6.35,6.35,0,0,1,2.2,1.56,7,7,0,0,1,1.43,2.34,8.53,8.53,0,0,1,0,5.77,7.1,7.1,0,0,1-1.41,2.36,6.54,6.54,0,0,1-2.21,1.58,7.09,7.09,0,0,1-2.91.57,6.35,6.35,0,0,1-2.8-.68,5.21,5.21,0,0,1-2.09-1.83h-.08V29A.4.4,0,0,1,65.19,29.38Zm9.59-14.1a6.07,6.07,0,0,0-.3-1.89,4.65,4.65,0,0,0-.88-1.62,4.2,4.2,0,0,0-1.46-1.12,4.46,4.46,0,0,0-2-.41,4.44,4.44,0,0,0-3.42,1.53,4.78,4.78,0,0,0-1,1.62,5.63,5.63,0,0,0,0,3.84,4.6,4.6,0,0,0,1,1.6,4.48,4.48,0,0,0,3.42,1.52,4.61,4.61,0,0,0,2-.42,4.38,4.38,0,0,0,1.46-1.14,4.65,4.65,0,0,0,.88-1.62A6.07,6.07,0,0,0,74.78,15.28Z" transform="translate(0 0)"/><path class="cls-1" d="M84.34,3.27a1.62,1.62,0,0,1-.54,1.27,1.85,1.85,0,0,1-1.31.5,1.75,1.75,0,0,1-1.28-.51,1.67,1.67,0,0,1-.53-1.26A1.69,1.69,0,0,1,81.21,2a1.76,1.76,0,0,1,1.28-.52A1.87,1.87,0,0,1,83.8,2,1.7,1.7,0,0,1,84.34,3.27Zm-.83,19h-2a.38.38,0,0,1-.39-.37V8.71a.38.38,0,0,1,.37-.39h2a.38.38,0,0,1,.38.38h0v13.2a.38.38,0,0,1-.37.39h0Z" transform="translate(0 0)"/><path class="cls-1" d="M90.76,22.3h-2a.38.38,0,0,1-.38-.38h0V.39A.38.38,0,0,1,88.75,0h2a.38.38,0,0,1,.39.37V21.91a.38.38,0,0,1-.37.39Z" transform="translate(0 0)"/><path class="cls-1" d="M109.73,15.28a7.7,7.7,0,0,1-.57,3,6.8,6.8,0,0,1-1.59,2.34,7,7,0,0,1-2.41,1.54,8.49,8.49,0,0,1-6,0,7,7,0,0,1-2.39-1.54,7.14,7.14,0,0,1-1.57-2.34,7.36,7.36,0,0,1-.58-3,7.36,7.36,0,0,1,.58-3,6.94,6.94,0,0,1,4-3.84,8.49,8.49,0,0,1,6,0A7.24,7.24,0,0,1,107.57,10a7,7,0,0,1,1.59,2.32A7.5,7.5,0,0,1,109.73,15.28Zm-2.89,0a6,6,0,0,0-.31-1.92,4.69,4.69,0,0,0-.9-1.6,4.27,4.27,0,0,0-1.46-1.1,5.05,5.05,0,0,0-4,0,4.27,4.27,0,0,0-1.46,1.1,4.89,4.89,0,0,0-.91,1.6,6.12,6.12,0,0,0,0,3.83,5,5,0,0,0,.91,1.61,4,4,0,0,0,1.46,1.12,5.05,5.05,0,0,0,4,0,4,4,0,0,0,1.46-1.12,4.73,4.73,0,0,0,.9-1.61,5.81,5.81,0,0,0,.31-1.89Z" transform="translate(0 0)"/><path class="cls-1" d="M119.61,10.59h-2.94a.38.38,0,0,0-.39.39v6.87a2.72,2.72,0,0,0,.48,1.81,1.86,1.86,0,0,0,1.5.55,4.58,4.58,0,0,0,.83-.08l.32-.08a.39.39,0,0,1,.48.28s0,.05,0,.08l.06,1.45a.38.38,0,0,1-.27.39c-.26.07-.53.13-.83.18a7.45,7.45,0,0,1-1.25.11,4,4,0,0,1-3-1.09,4.53,4.53,0,0,1-1-3.28V11a.38.38,0,0,0-.37-.39h-1.93a.38.38,0,0,1-.38-.38h0V8.71a.38.38,0,0,1,.37-.39h1.92a.38.38,0,0,0,.39-.37V4.69a.38.38,0,0,1,.38-.38h2a.38.38,0,0,1,.38.38V7.93a.38.38,0,0,0,.39.39h2.94a.38.38,0,0,1,.39.37V10.2a.39.39,0,0,1-.35.41Z" transform="translate(0 0)"/></svg>